<?xml version="1.0" encoding="utf-8"?>
<!-- Generator: Adobe Illustrator 23.0.3, SVG Export Plug-In . SVG Version: 6.00 Build 0)  -->
<svg version="1.1" id="Layer_1" xmlns="http://www.w3.org/2000/svg" xmlns:xlink="http://www.w3.org/1999/xlink" x="0px" y="0px"
	 viewBox="0 0 610 610" style="enable-background:new 0 0 610 610;" xml:space="preserve">
<style type="text/css">
	.st0{fill:url(#SVGID_1_);}
</style>
<linearGradient id="SVGID_1_" gradientUnits="userSpaceOnUse" x1="18.9793" y1="301.2755" x2="590.8542" y2="301.2755">
	<stop  offset="0" style="stop-color:#804D85"/>
	<stop  offset="1" style="stop-color:#41BDBD"/>
</linearGradient>
<path class="st0" d="M304.6,301.4c39.4,0,71.3-31.9,71.3-71.3s-31.9-71.3-71.3-71.3s-71.3,31.9-71.3,71.3
	C233.4,269.5,265.2,301.4,304.6,301.4z M304.6,181.3c27,0,48.8,21.9,48.8,48.8c0,27-21.9,48.8-48.8,48.8c-27,0-48.8-21.9-48.8-48.8
	C255.8,203.2,277.6,181.3,304.6,181.3z M491.1,268.8h-30.3c-39.8,0-75.7,24-91.8,59.8c-15-8.5-31.9-13-49.2-13h-30.3
	c-17.2,0-34,4.4-48.9,12.9c-16.1-36.1-51.9-59.5-91.4-59.7h-30.3C63.7,268.9,19,313.5,19,368.6v95.7c0,6.2,5,11.2,11.2,11.2h159.5
	v35.5c0,6.2,5,11.2,11.2,11.2h207.4c6.2,0,11.2-5,11.2-11.2v-35.5h160.1c6.2,0,11.2-5,11.2-11.2v-95.7
	C590.8,313.5,546.2,268.9,491.1,268.8z M491.1,291.3c0.6,0,1.1,0,1.7,0l-13.6,58.2c-0.5,2.6-2.6,4.6-5.3,4.9c-0.2,0-0.3,0-0.5,0
	c-2.8-0.2-5.2-2.2-5.7-5l-13.5-57.9c2.2-0.2,4.3-0.3,6.5-0.3H491.1z M319.8,338.1c2.1,0,4.1,0.1,6.1,0.3l-18.5,60.2l-18.5-60.4
	c0.2,0,0.4,0,0.6,0H319.8z M149.1,291.3c0.8,0,1.5,0,2.3,0l-18.7,68.1l-18.7-68c1.6-0.1,3.2-0.2,4.8-0.2H149.1z M41.5,368.6
	c0-32.3,20.1-61.2,50.4-72.5l29.5,107.2V453H41.5V368.6z M143.8,453v-49.7l29.7-108c22.3,7.6,40,24.7,48.2,46.8
	c-20.5,18.8-32.1,45.4-32.1,73.2V453H143.8z M212.2,415.4c0-33.8,22-63.7,54.3-73.8l29.7,96.9v61.3h-84V415.4z M397,499.8h-78.4
	v-61.3l29.2-95.1c29.6,11.6,49.2,40.1,49.2,72V499.8z M387.6,342.3c7.9-20.8,24.1-37.3,44.8-45.5l13.5,57.8c2,8.9,8.1,16.3,16.4,20
	v78.5h-42.7v-37.7C419.5,387.6,407.9,361.1,387.6,342.3z M568.4,453h-83.7v-78.5c8.3-3.7,14.3-11.1,16.4-19.9l13.9-59.5
	c31.8,10.4,53.4,40,53.4,73.5V453z M475.3,255.3c32.3,0,60.5-21.7,68.9-52.8c8.4-31.2-5.3-64.1-33.2-80.2v-10.8
	c0-17.2-14-31.2-31.2-31.2c-17.2,0-31.2,14-31.2,31.2v6.4c-31.6,12.8-49.7,46.2-43.2,79.7C411.9,231.1,441.2,255.3,475.3,255.3
	L475.3,255.3z M475.3,232.8c-20.4,0-38.6-12.7-45.7-31.7c9-1.5,17.8-4.1,26.2-7.7c10.4-4.5,20.1-10.6,28.5-18.2
	c8,8.9,20.4,19.6,37.3,24.7C515,219.7,496.3,233,475.3,232.8z M523.6,176.6c-11.2-4.6-19.4-12.7-24.4-18.7c2.6-3.8,4.9-7.7,6.9-11.8
	C515.5,153.7,521.7,164.6,523.6,176.6z M471,111.5c0-4.8,3.9-8.7,8.7-8.7s8.7,3.9,8.7,8.7v2.4c-4.3-0.8-8.7-1.2-13.2-1.2
	c-1.4,0-2.9,0.1-4.3,0.1V111.5z M475.3,135.1c3.5,0,7,0.4,10.5,1.1c-15.3,30.6-43.4,39.7-59,42.5C429.4,154,450.3,135.2,475.3,135.1
	z M133.9,255.3c39.2,0,70.5-31.2,71.3-71.1c0-0.1,0-0.1,0-0.2c0-39.4-31.9-71.3-71.3-71.3c-39.4,0-71.3,31.9-71.3,71.3
	C62.6,223.3,94.5,255.3,133.9,255.3z M133.9,135.1c26.9,0,48.7,21.8,48.8,48.7c-0.6,27.4-22,48.9-48.8,48.9
	c-27,0-48.8-21.9-48.8-48.8S106.9,135.1,133.9,135.1z M535.9,352.4h-21.2c-6.2,0-11.2,5-11.2,11.2s5,11.2,11.2,11.2h21.2
	c6.2,0,11.2-5,11.2-11.2S542.1,352.4,535.9,352.4z M348.6,402.4c-6.2,0-11.2,5-11.2,11.2s5,11.2,11.2,11.2h21.2
	c6.2,0,11.2-5,11.2-11.2s-5-11.2-11.2-11.2H348.6z M198.8,359.9c0-6.2-5-11.2-11.2-11.2h-16.2c-6.2,0-11.2,5-11.2,11.2
	s5,11.2,11.2,11.2h16.2C193.7,371.2,198.8,366.1,198.8,359.9z"/>
</svg>
